<svg width="120" height="132" viewBox="0 0 120 132" fill="none" xmlns="http://www.w3.org/2000/svg">
<g id="Holiday Camp">
<g id="Shape">
<path id="Vector" d="M60 132C93.1371 132 120 105.137 120 72C120 38.8629 93.1371 12 60 12C26.8629 12 0 38.8629 0 72C0 105.137 26.8629 132 60 132Z" fill="url(#paint0_linear_5610_64551)"/>
<path id="Vector_2" fill-rule="evenodd" clip-rule="evenodd" d="M119.963 74.1216C99.9219 72.6453 78.9017 73.1586 56.9028 75.6616C34.9648 78.1577 16.8062 82.5863 2.42691 88.9476C0.847424 83.5732 0 77.8856 0 72C0 67.1485 0.575822 62.4314 1.66285 57.9134C6.35308 54.5942 12.7834 56.5623 17.741 61.3C25.3999 68.6192 31.4314 72.2153 42.2881 61.3C53.1448 50.3848 59.6346 52.9091 66.1017 61.3C72.5687 69.6909 78.6641 67.5626 92.2739 65.524C100.437 64.3012 109.679 66.5743 119.999 72.3434C119.996 72.9382 119.984 73.531 119.963 74.1216V74.1216Z" fill="url(#paint1_linear_5610_64551)"/>
<path id="Vector_3" fill-rule="evenodd" clip-rule="evenodd" d="M0.00976562 73.1087C5.52136 66.4549 12.2506 64.5754 20.1975 67.4702C36.2958 73.3343 37.6978 72.1408 44.513 67.4702C51.3281 62.7995 51.0369 59.7723 59.9997 65.1622C68.9625 70.5521 75.924 73.4912 83.5864 70.8517C91.2488 68.2122 100.572 63.2551 109.46 73.222C89.0851 72.5393 71.4143 73.4939 56.4477 76.0857C39.3941 79.0389 15.1694 89.8401 4.5091 94.862C1.73588 88.1383 0.149164 80.8002 0.00976562 73.1087Z" fill="url(#paint2_linear_5610_64551)"/>
<path id="Vector_4" fill-rule="evenodd" clip-rule="evenodd" d="M2.42773 88.9513C31.2284 74.6199 70.4096 69.588 119.972 73.8555C118.991 106.134 92.516 132 59.9997 132C32.7496 132 9.74235 113.834 2.42773 88.9513Z" fill="url(#paint3_linear_5610_64551)"/>
<path id="Vector_5" fill-rule="evenodd" clip-rule="evenodd" d="M2.38281 88.7998C26.9105 75.8515 60.2062 70.5156 102.27 72.7921C95.8696 72.7921 71.429 72.7921 56.4058 80.6487C41.3825 88.5053 44.7788 93.5181 55.4525 97.9018C66.1261 102.285 59.5838 109.186 55.4525 109.186C52.6983 109.186 47.7075 108.323 40.48 106.598C32.5292 105.172 23.6002 106.358 13.693 110.157C8.58021 103.959 4.68759 96.7176 2.38281 88.7998Z" fill="url(#paint4_linear_5610_64551)"/>
<path id="Vector_6" fill-rule="evenodd" clip-rule="evenodd" d="M13.1035 109.43C26.3653 103.777 38.7259 103.138 50.1853 107.514C74.1821 116.677 86.3287 99.6506 92.4154 85.5378C97.1016 74.6724 112.944 72.9991 119.987 73.2687C119.311 105.82 92.7127 132 59.9997 132C41.0197 132 24.098 123.187 13.1035 109.43H13.1035Z" fill="url(#paint5_linear_5610_64551)"/>
<path id="Vector_7" fill-rule="evenodd" clip-rule="evenodd" d="M49.44 131.074C49.3538 131.058 49.2677 131.043 49.1816 131.027V131.016C49.2681 131.035 49.3542 131.055 49.44 131.074H49.44Z" fill="url(#paint6_linear_5610_64551)"/>
<path id="Vector_8" fill-rule="evenodd" clip-rule="evenodd" d="M57.2578 131.938C60.0685 131.812 62.1427 131.037 63.4804 129.613C67.0782 125.784 58.2624 116.684 71.9523 115.93C85.6421 115.176 102.783 116.864 97.4741 105.589C92.1681 94.3208 98.6317 73.3657 119.985 73.3411C119.272 105.859 92.6884 132 59.9996 132C59.0807 132 58.1666 131.979 57.2578 131.938Z" fill="url(#paint7_linear_5610_64551)"/>
<path id="Vector_9" fill-rule="evenodd" clip-rule="evenodd" d="M55.2695 54.231C56.7242 49.8949 58.8341 45.969 60.0007 42.8043C62.8497 35.0754 69.4509 33.7873 69.4509 27.1569C69.4509 20.5264 75.1978 19.1765 78.2946 13.4C81.3915 7.62346 84.275 13.9762 87.6308 19.1765C90.9865 24.3767 94.6777 23.8199 94.6777 33.7873C94.6777 43.7546 101.62 43.8624 105.736 52.9158C107.988 57.8675 111.168 63.5995 115.276 70.1116C106.839 66.1533 99.1719 64.6908 92.2746 65.7239C78.6648 67.7625 72.5694 69.8909 66.1024 61.5C62.7072 57.0948 59.3058 54.3066 55.2695 54.231Z" fill="url(#paint8_linear_5610_64551)"/>
<path id="Vector_10" fill-rule="evenodd" clip-rule="evenodd" d="M87.6292 19.1763C90.9849 24.3765 94.6761 23.8197 94.6761 33.7871C94.6761 43.7544 101.618 43.8622 105.735 52.9156C107.986 57.8673 111.166 63.5993 115.275 70.1113C106.838 66.1531 99.1703 64.6905 92.273 65.7237C78.6632 67.7623 74.9991 57.6412 79.6429 53.6506C84.2868 49.66 93.1096 43.3295 89.1735 39.0793C85.2375 34.829 86.0848 31.5191 87.6292 27.9278C88.2785 26.4085 88.6032 24.9438 88.6032 23.5337C88.6032 21.4186 87.6292 19.1763 87.6292 19.1763Z" fill="url(#paint9_linear_5610_64551)"/>
<path id="Vector_11" fill-rule="evenodd" clip-rule="evenodd" d="M93.3519 65.5832C92.9903 65.6233 92.6307 65.6702 92.2732 65.7237C78.6634 67.7624 72.568 69.8907 66.101 61.4998C59.6339 53.1089 53.1441 50.5845 42.2874 61.4998C31.4307 72.415 25.3992 68.8189 17.7403 61.4998C15.3591 59.2243 12.6382 57.5876 9.93359 56.8689C11.098 54.666 12.2327 52.3512 12.8214 50.0008C14.3287 43.983 14.0226 40.4397 18.8626 37.9779C23.7026 35.5162 25.166 33.2808 25.166 26.2117C25.166 19.1426 33.7841 19.3126 32.759 12.4857C31.7338 5.65875 36.4098 5.82167 40.7408 1.56141C45.0717 -2.69885 50.075 9.1268 54.0221 12.4857C57.9692 15.8445 54.7807 18.9354 58.3905 21.5732C62.0004 24.2109 62.0767 24.0787 63.3662 29.8293C64.2259 33.663 66.3971 36.3792 69.8796 37.9779C71.574 38.7064 74.2381 39.0706 77.8717 39.0706C83.3222 39.0706 82.3115 44.6799 82.3115 50.0008C82.3115 55.3217 87.6449 57.784 91.6511 62.7724C92.3939 63.6974 92.9608 64.6343 93.3519 65.5832H93.3519Z" fill="url(#paint10_linear_5610_64551)"/>
<path id="Vector_12" fill-rule="evenodd" clip-rule="evenodd" d="M36.8616 7.84106C33.6938 11.4591 43.8327 16.3752 38.988 24.4339C34.1433 32.4927 51.1066 37.9781 41.8811 45.9558C35.7308 51.2743 35.8662 56.4557 42.2874 61.4999C31.4307 72.4151 25.3992 68.819 17.7403 61.4999C15.3591 59.2244 12.6382 57.5878 9.93359 56.869C11.098 54.6661 12.2327 52.3513 12.8214 50.001C14.3287 43.9832 14.0226 40.4398 18.8626 37.9781C23.7026 35.5164 25.166 33.2809 25.166 26.2118C25.166 19.1427 33.7841 19.3127 32.759 12.4858C31.7339 5.65886 36.4098 5.82178 40.7408 1.56152C40.2665 3.33584 38.9734 5.42902 36.8616 7.84106Z" fill="url(#paint11_linear_5610_64551)"/>
<path id="Vector_13" fill-rule="evenodd" clip-rule="evenodd" d="M25.6278 72.9485C21.6748 73.7398 19.4828 72.8485 19.052 70.2746C18.4056 66.4137 24.0558 64.3558 21.2307 60.3405C18.4056 56.3251 23.5011 52.979 22.9376 49.1676C22.3741 45.3563 24.143 43.6262 27.9038 51.9546C31.6645 60.2831 25.9264 59.4114 29.4558 65.4145C31.8087 69.4166 30.5327 71.9279 25.6278 72.9485Z" fill="url(#paint12_linear_5610_64551)"/>
<path id="Vector_14" fill-rule="evenodd" clip-rule="evenodd" d="M24.8743 55.5436C26.2667 57.9491 25.0821 59.8775 24.6489 61.3157C24.2157 62.7538 24.5217 65.1002 24.8743 66.2213C25.227 67.3424 24.795 69.9101 24.6489 70.8628C24.5028 71.8155 24.9622 73.0721 24.6489 73.1152C21.3115 73.5746 19.4459 72.6277 19.052 70.2747C18.4056 66.4138 24.0558 64.3559 21.2307 60.3406C18.4056 56.3252 23.5011 52.9791 22.9376 49.1677C23.3006 51.8147 23.9461 53.94 24.8743 55.5436Z" fill="url(#paint13_linear_5610_64551)"/>
<path id="Vector_15" fill-rule="evenodd" clip-rule="evenodd" d="M22.9571 80.33C24.2524 74.7827 24.4382 71.4332 23.5143 70.2817C22.1286 68.5544 21.9343 66.8469 22.9571 68.3242C23.9798 69.8015 25.0492 70.2389 24.366 66.089C23.6828 61.939 25.8109 57.508 25.4477 59.179C25.0845 60.8501 24.2456 63.6102 25.1174 66.089C25.9891 68.5677 23.8219 70.8568 26.773 69.7116C29.7241 68.5664 27.8449 69.7257 26.4696 70.8387C25.0943 71.9517 25.068 71.9613 25.6292 74.6913C26.0033 76.5113 26.1233 78.0871 25.9891 79.4188L22.9571 80.33Z" fill="url(#paint14_linear_5610_64551)"/>
<path id="Vector_16" fill-rule="evenodd" clip-rule="evenodd" d="M49.6285 70.0346C47.1067 70.5406 45.7084 69.9706 45.4335 68.3245C45.0212 65.8553 48.6256 64.5392 46.8234 61.9713C45.0212 59.4033 48.2718 57.2634 47.9123 54.8259C47.5528 52.3884 48.6813 51.2819 51.0804 56.6083C53.4795 61.9346 49.8189 61.3771 52.0705 65.2163C53.5715 67.7758 52.7575 69.3818 49.6285 70.0346Z" fill="url(#paint15_linear_5610_64551)"/>
<path id="Vector_17" fill-rule="evenodd" clip-rule="evenodd" d="M49.1478 58.9035C50.036 60.4419 49.2803 61.6752 49.004 62.595C48.7276 63.5147 48.9228 65.0153 49.1478 65.7323C49.3728 66.4492 49.0972 68.0914 49.004 68.7007C48.9108 69.3099 49.2039 70.1136 49.004 70.1412C46.875 70.4349 45.6848 69.8294 45.4335 68.3246C45.0212 65.8554 48.6256 64.5393 46.8234 61.9713C45.0212 59.4034 48.2718 57.2634 47.9123 54.8259C48.1438 56.5188 48.5557 57.878 49.1478 58.9035Z" fill="url(#paint16_linear_5610_64551)"/>
<path id="Vector_18" fill-rule="evenodd" clip-rule="evenodd" d="M47.9242 74.7551C48.7505 71.2074 48.869 69.0653 48.2797 68.3289C47.3956 67.2242 47.2717 66.1322 47.9242 67.077C48.5766 68.0218 49.2588 68.3015 48.823 65.6475C48.3871 62.9935 49.7447 60.1597 49.513 61.2284C49.2813 62.2971 48.7462 64.0623 49.3023 65.6475C49.8584 67.2327 48.4759 68.6967 50.3584 67.9643C52.241 67.2319 51.0422 67.9733 50.1649 68.6851C49.2876 69.3969 49.2707 69.4031 49.6288 71.149C49.8674 72.3129 49.9494 73.4196 49.8746 74.469L47.9242 74.7551Z" fill="url(#paint17_linear_5610_64551)"/>
<path id="Vector_19" d="M44.8339 75.1099L45.0116 75.2017C40.4017 84.1221 37.3413 89.6817 35.827 91.886L35.6621 91.7727C37.1699 89.5781 40.2283 84.022 44.8339 75.1099Z" fill="#123874"/>
<path id="Vector_20" fill-rule="evenodd" clip-rule="evenodd" d="M66.0751 88.8727L68.4229 89.5627C66.4161 90.4814 64.9941 91.4421 64.157 92.445C59.8398 93.0803 56.1484 93.9542 53.0828 95.0668C45.6556 94.3601 40.5284 92.9036 37.7012 90.6975L44.7033 81.1658L66.0751 88.8727Z" fill="url(#paint18_linear_5610_64551)"/>
<path id="Vector_21" fill-rule="evenodd" clip-rule="evenodd" d="M63.7125 91.4543C65.5151 90.1859 67.0933 89.5517 68.4472 89.5517C65.014 85.5634 62.0028 81.1796 59.4135 76.4001L51.1602 80.1702L57.715 90.6373L60.6517 89.9037H62.7278L63.7125 91.4543Z" fill="url(#paint19_linear_5610_64551)"/>
<path id="Vector_22" fill-rule="evenodd" clip-rule="evenodd" d="M37.6992 90.5909C41.3777 92.5608 46.4684 93.7469 52.9714 94.1494C56.159 92.8075 58.977 92.1365 61.4253 92.1365C60.2123 88.6972 59.5341 83.4252 59.3907 76.3206C55.9033 76.4486 53.0778 76.4486 50.9142 76.3206C48.7507 76.1926 46.7418 75.7938 44.8878 75.1243C43.6768 78.6955 42.4708 81.6035 41.2698 83.8482C40.0688 86.0929 38.8786 88.3404 37.6992 90.5909Z" fill="url(#paint20_linear_5610_64551)"/>
<path id="Vector_23" fill-rule="evenodd" clip-rule="evenodd" d="M37.6992 90.5909C41.3777 92.5608 46.4684 93.7469 52.9714 94.1494C55.5695 88.8117 57.7093 82.8688 59.3907 76.3206C55.9033 76.4486 53.0778 76.4486 50.9142 76.3206C48.7507 76.1926 46.7418 75.7938 44.8878 75.1243C43.6768 78.6955 42.4708 81.6035 41.2698 83.8482C40.0688 86.0929 38.8786 88.3404 37.6992 90.5909Z" fill="url(#paint21_linear_5610_64551)"/>
<path id="Vector_24" fill-rule="evenodd" clip-rule="evenodd" d="M63.713 91.4543C65.5156 90.1859 67.0939 89.5517 68.4477 89.5517C65.0145 85.5634 62.0033 81.1796 59.4141 76.4001C59.8987 80.0074 60.3426 82.6325 60.7459 84.2755C61.0791 85.6333 61.74 87.5094 62.7284 89.9037L63.713 91.4543Z" fill="url(#paint22_linear_5610_64551)"/>
<path id="Vector_25" d="M53.8874 96.3798L53.707 96.2934C54.9929 93.6096 56.8682 87.0125 59.3287 76.5115L59.3811 76.2878L59.5091 76.4786C63.5839 82.5523 67.4379 87.0224 71.0693 89.8888L70.9453 90.0458C67.3335 87.1949 63.5093 82.7732 59.4711 76.7805C57.0327 87.167 55.1728 93.6971 53.8874 96.3798Z" fill="#123874"/>
<path id="Vector_26" fill-rule="evenodd" clip-rule="evenodd" d="M71.5188 89.3361L70.9489 90.046L70.9082 89.9368L71.234 89.2017L71.5188 89.3361Z" fill="#123874"/>
<path id="Vector_27" fill-rule="evenodd" clip-rule="evenodd" d="M53.127 96.1008L53.3183 95.8225L53.9266 96.2698L53.8859 96.379L53.127 96.1008Z" fill="#123874"/>
<path id="Vector_28" fill-rule="evenodd" clip-rule="evenodd" d="M35.0879 91.5292L35.2706 91.2529L35.8617 91.7822L35.828 91.8844L35.0879 91.5292Z" fill="#123874"/>
</g>
</g>
<defs>
<linearGradient id="paint0_linear_5610_64551" x1="56.837" y1="61.5152" x2="76.1639" y2="13.8848" gradientUnits="userSpaceOnUse">
<stop stop-color="#D5EDF3"/>
<stop offset="1" stop-color="#A2DBD8"/>
</linearGradient>
<linearGradient id="paint1_linear_5610_64551" x1="79.4038" y1="70.3865" x2="48.0315" y2="95.704" gradientUnits="userSpaceOnUse">
<stop stop-color="#2FAC6D"/>
<stop offset="1" stop-color="#007846"/>
</linearGradient>
<linearGradient id="paint2_linear_5610_64551" x1="107.55" y1="77.1351" x2="33.367" y2="103.194" gradientUnits="userSpaceOnUse">
<stop stop-color="#2FAC6D"/>
<stop offset="1" stop-color="#007846"/>
</linearGradient>
<linearGradient id="paint3_linear_5610_64551" x1="116.193" y1="94.5268" x2="51.1382" y2="128.161" gradientUnits="userSpaceOnUse">
<stop stop-color="#68C179"/>
<stop offset="1" stop-color="#25A062"/>
</linearGradient>
<linearGradient id="paint4_linear_5610_64551" x1="93.9236" y1="88.7316" x2="56.2436" y2="106.581" gradientUnits="userSpaceOnUse">
<stop stop-color="#68C179"/>
<stop offset="1" stop-color="#25A062"/>
</linearGradient>
<linearGradient id="paint5_linear_5610_64551" x1="69.7281" y1="92.4017" x2="65.4263" y2="114.409" gradientUnits="userSpaceOnUse">
<stop stop-color="#77EBFF"/>
<stop offset="1" stop-color="#4D86DE"/>
</linearGradient>
<linearGradient id="paint6_linear_5610_64551" x1="49.4044" y1="131.031" x2="49.3833" y2="131.119" gradientUnits="userSpaceOnUse">
<stop stop-color="#91F6FF"/>
<stop offset="1" stop-color="#4D86DE"/>
</linearGradient>
<linearGradient id="paint7_linear_5610_64551" x1="111.334" y1="82.5934" x2="65.4066" y2="149.544" gradientUnits="userSpaceOnUse">
<stop stop-color="#91F6FF"/>
<stop offset="1" stop-color="#4D86DE"/>
</linearGradient>
<linearGradient id="paint8_linear_5610_64551" x1="87.029" y1="21.0879" x2="70.6611" y2="69.303" gradientUnits="userSpaceOnUse">
<stop stop-color="#30A0DE"/>
<stop offset="1" stop-color="#194383"/>
</linearGradient>
<linearGradient id="paint9_linear_5610_64551" x1="89.1691" y1="89.9215" x2="118.957" y2="-23.4179" gradientUnits="userSpaceOnUse">
<stop stop-color="#30A0DE"/>
<stop offset="1" stop-color="#194383"/>
</linearGradient>
<linearGradient id="paint10_linear_5610_64551" x1="54.084" y1="19.2272" x2="42.3346" y2="66.0874" gradientUnits="userSpaceOnUse">
<stop stop-color="#30A0DE"/>
<stop offset="1" stop-color="#194383"/>
</linearGradient>
<linearGradient id="paint11_linear_5610_64551" x1="29.1423" y1="20.179" x2="16.5892" y2="78.1442" gradientUnits="userSpaceOnUse">
<stop stop-color="#30A0DE"/>
<stop offset="1" stop-color="#194383"/>
</linearGradient>
<linearGradient id="paint12_linear_5610_64551" x1="24.8" y1="46" x2="24.8" y2="66.7031" gradientUnits="userSpaceOnUse">
<stop stop-color="#68C179"/>
<stop offset="1" stop-color="#1FA063"/>
</linearGradient>
<linearGradient id="paint13_linear_5610_64551" x1="22.3244" y1="50.8237" x2="20.6183" y2="73.1068" gradientUnits="userSpaceOnUse">
<stop stop-color="#68C179"/>
<stop offset="1" stop-color="#1FA063"/>
</linearGradient>
<linearGradient id="paint14_linear_5610_64551" x1="25.2797" y1="83.5299" x2="25.8474" y2="67.2972" gradientUnits="userSpaceOnUse">
<stop stop-color="#006239"/>
<stop offset="1" stop-color="#007846"/>
</linearGradient>
<linearGradient id="paint15_linear_5610_64551" x1="49.1004" y1="52.8" x2="49.1004" y2="66.0404" gradientUnits="userSpaceOnUse">
<stop stop-color="#68C179"/>
<stop offset="1" stop-color="#1FA063"/>
</linearGradient>
<linearGradient id="paint16_linear_5610_64551" x1="47.521" y1="55.885" x2="46.4325" y2="70.1361" gradientUnits="userSpaceOnUse">
<stop stop-color="#68C179"/>
<stop offset="1" stop-color="#1FA063"/>
</linearGradient>
<linearGradient id="paint17_linear_5610_64551" x1="49.3592" y1="83.3674" x2="50.3173" y2="67.9309" gradientUnits="userSpaceOnUse">
<stop stop-color="#006239"/>
<stop offset="1" stop-color="#008D52"/>
</linearGradient>
<linearGradient id="paint18_linear_5610_64551" x1="100.746" y1="87.3129" x2="48.6516" y2="96.9199" gradientUnits="userSpaceOnUse">
<stop stop-color="#68C179"/>
<stop offset="1" stop-color="#139553"/>
</linearGradient>
<linearGradient id="paint19_linear_5610_64551" x1="59.8037" y1="78.219" x2="60.6644" y2="85.1624" gradientUnits="userSpaceOnUse">
<stop stop-color="#F9BB49"/>
<stop offset="1" stop-color="#CD6709"/>
</linearGradient>
<linearGradient id="paint20_linear_5610_64551" x1="51.4311" y1="76.1678" x2="55.7578" y2="94.3792" gradientUnits="userSpaceOnUse">
<stop stop-color="#F9BB49"/>
<stop offset="1" stop-color="#F08523"/>
</linearGradient>
<linearGradient id="paint21_linear_5610_64551" x1="48.545" y1="77.3192" x2="47.28" y2="87.7124" gradientUnits="userSpaceOnUse">
<stop stop-color="#F9BB49"/>
<stop offset="1" stop-color="#F08523"/>
</linearGradient>
<linearGradient id="paint22_linear_5610_64551" x1="63.9309" y1="76.4001" x2="63.2508" y2="87.0163" gradientUnits="userSpaceOnUse">
<stop stop-color="#F9BB49"/>
<stop offset="1" stop-color="#F08523"/>
</linearGradient>
</defs>
</svg>
