<svg width="133" height="120" viewBox="0 0 133 120" fill="none" xmlns="http://www.w3.org/2000/svg">
<g id="Holiday Summer">
<g id="Shape">
<path id="Vector" d="M66 120C99.1371 120 126 93.1371 126 60C126 26.8629 99.1371 0 66 0C32.8629 0 6 26.8629 6 60C6 93.1371 32.8629 120 66 120Z" fill="url(#paint0_linear_5610_64525)"/>
<path id="Vector_2" fill-rule="evenodd" clip-rule="evenodd" d="M6.48242 67.634C19.0342 64.1776 33.2793 64.8383 49.218 69.6159C76.9623 77.9323 97.3931 53.9323 120.767 69.6159C122.147 70.542 123.457 71.5029 124.698 72.4988C118.947 99.6367 94.8523 120 66.0014 120C35.4504 120 10.2326 97.1664 6.48243 67.634H6.48242Z" fill="url(#paint1_linear_5610_64525)"/>
<path id="Vector_3" fill-rule="evenodd" clip-rule="evenodd" d="M9.62891 80.5972C20.0583 73.7199 30.6557 72.0883 41.4209 75.7025C58.1091 81.3052 67.3078 68.1473 89.9495 81.3052C105.704 90.4608 114.071 79.0158 122.502 80.2371C114.198 103.417 92.0359 120 66.0001 120C40.0995 120 18.0319 103.589 9.62891 80.5972L9.62891 80.5972Z" fill="url(#paint2_linear_5610_64525)"/>
<path id="Vector_4" fill-rule="evenodd" clip-rule="evenodd" d="M8.70703 77.869C40.7423 73.7759 38.9249 86.3089 72.7079 90.6406C93.7687 93.3411 110.928 86.7271 120.99 84.0422C111.722 105.211 90.5887 120 66.0012 120C39.0872 120 16.3121 102.279 8.70703 77.869Z" fill="url(#paint3_linear_5610_64525)"/>
<path id="Vector_5" fill-rule="evenodd" clip-rule="evenodd" d="M28.1631 106.567C26.9898 105.612 25.8532 104.614 24.7559 103.575C28.2004 102.086 38.9607 101 51.7015 101C67.2207 101 79.8015 102.612 79.8015 104.6C79.8015 106.588 67.2207 108.2 51.7015 108.2C41.8483 108.2 33.1795 107.55 28.1631 106.567Z" fill="url(#paint4_linear_5610_64525)"/>
<path id="Vector_6" opacity="0.2" d="M112.8 42.9999C123.735 42.9999 132.6 34.1351 132.6 23.1999C132.6 12.2647 123.735 3.3999 112.8 3.3999C101.865 3.3999 93 12.2647 93 23.1999C93 34.1351 101.865 42.9999 112.8 42.9999Z" fill="url(#paint5_linear_5610_64525)"/>
<path id="Vector_7" fill-rule="evenodd" clip-rule="evenodd" d="M6.55273 51.8211C10.5419 22.5532 35.6371 0 65.9999 0C77.8139 0 88.8304 3.41441 98.1164 9.31025C92.1384 12.6159 87.88 17.2136 85.3413 23.1031C79.3711 36.9539 68.6403 44.256 48.3225 39.6533C32.0691 35.9714 16.0008 41.1485 6.55273 51.8211Z" fill="url(#paint6_linear_5610_64525)"/>
<path id="Vector_8" fill-rule="evenodd" clip-rule="evenodd" d="M1.03711 49.184C1.70907 50.0309 2.69207 50.7112 3.9861 51.225C5.28013 51.7387 6.17823 51.7387 6.68042 51.225C6.69918 52.1382 7.21683 52.8004 8.23335 53.2114C9.75812 53.828 23.1747 58.5236 25.3164 56.5769C25.3803 57.4523 26.6324 58.1597 29.0728 58.6994C32.7335 59.5088 48.4564 62.7556 49.5971 60.7275C50.0663 61.7668 51.1091 62.3809 52.7253 62.5699C55.1496 62.8534 67.4675 64.4056 68.8853 62.2991C69.2748 62.8564 69.9128 63.1351 70.7994 63.1351C72.1292 63.1351 74.9669 63.1196 75.5324 62.5699C75.9094 62.2034 72.5214 59.155 65.3686 53.4248L47.529 45.0805L16.8897 41.2239L1.03711 49.184Z" fill="url(#paint7_linear_5610_64525)"/>
<path id="Vector_9" fill-rule="evenodd" clip-rule="evenodd" d="M41.2619 32.7597C41.3247 32.3224 41.7301 32.0187 42.1674 32.0815C42.6048 32.1442 42.9084 32.5496 42.8457 32.987L41.7935 40.3209C41.7308 40.7582 41.3254 41.0619 40.888 40.9992C40.4507 40.9364 40.147 40.531 40.2098 40.0937L41.2619 32.7597ZM38.2411 50.5326C38.3173 50.0973 38.7318 49.8063 39.1671 49.8825C39.6023 49.9587 39.8933 50.3732 39.8171 50.8084L30.3499 104.894C30.2737 105.329 29.8591 105.62 29.4239 105.544C28.9887 105.468 28.6977 105.053 28.7738 104.618L38.2411 50.5326Z" fill="url(#paint8_linear_5610_64525)"/>
<path id="Vector_10" fill-rule="evenodd" clip-rule="evenodd" d="M1.58363 46.9013C0.859907 47.5843 0.498047 48.2615 0.498047 48.9329C0.498047 49.9401 0.673638 49.83 3.39625 49.83C5.21133 49.83 9.73977 49.7475 16.9816 49.5825C18.4189 49.5307 19.4789 48.4901 20.1616 46.4608C20.4385 49.241 21.6418 50.7394 23.7715 50.956C26.9659 51.281 37.8621 51.6692 45.4817 53.7432C53.1013 55.8173 56.0445 57.8886 57.6788 53.0886C58.0017 55.1307 58.9933 56.5087 60.6534 57.2225C62.3135 57.9364 66.911 59.7055 74.4459 62.5297C75.0574 62.8361 75.5036 62.717 75.7845 62.1725C76.2058 61.3556 74.688 58.4142 73.0527 56.244C71.4175 54.0739 65.8951 42.4074 50.1713 37.4897C48.631 35.7394 46.6906 34.8642 44.3503 34.8642C40.8397 34.8642 36.9388 32.1508 32.9117 34.3127C27.3091 34.058 22.3927 34.9282 18.1625 36.9232C13.9323 38.9182 8.40602 42.2443 1.58363 46.9013Z" fill="url(#paint9_linear_5610_64525)"/>
<path id="Vector_11" fill-rule="evenodd" clip-rule="evenodd" d="M53.2699 102.362L48.335 94.9359C48.1863 94.7122 48.2479 94.4109 48.4725 94.2628C48.6971 94.1148 48.9997 94.1761 49.1484 94.3998L54.0833 101.826C54.232 102.05 54.1704 102.351 53.9457 102.499C53.7211 102.647 53.4185 102.586 53.2699 102.362Z" fill="url(#paint10_linear_5610_64525)"/>
<path id="Vector_12" fill-rule="evenodd" clip-rule="evenodd" d="M42.7569 105.376C42.5758 105.574 42.2673 105.589 42.0679 105.408C41.8686 105.228 41.8538 104.921 42.035 104.722L52.4036 93.3578C52.5848 93.1593 52.8932 93.1446 53.0926 93.325C53.2919 93.5054 53.3067 93.8125 53.1256 94.0111L42.7569 105.376Z" fill="url(#paint11_linear_5610_64525)"/>
<path id="Vector_13" fill-rule="evenodd" clip-rule="evenodd" d="M56.5297 93.9255H68.4341C67.4583 96.9902 65.6568 98.478 63.0297 98.3888C63.0297 98.3888 58.6663 98.3888 49.9395 98.3888L56.5297 93.9255Z" fill="url(#paint12_linear_5610_64525)"/>
<path id="Vector_14" fill-rule="evenodd" clip-rule="evenodd" d="M40.9531 81.8416H54.8775C56.1119 91.5048 58.8293 97.0205 63.0296 98.3888H49.9393C47.1387 98.0506 45.0993 96.4276 43.8212 93.5197C42.543 90.6119 41.587 86.7191 40.9531 81.8416Z" fill="url(#paint13_linear_5610_64525)"/>
<path id="Vector_15" fill-rule="evenodd" clip-rule="evenodd" d="M54.3878 82.7385C54.2407 82.5138 54.3044 82.2129 54.53 82.0664C54.7557 81.9199 55.0579 81.9834 55.205 82.2081L68.2237 102.099C68.3708 102.324 68.3071 102.625 68.0814 102.771C67.8558 102.918 67.5536 102.854 67.4065 102.629L54.3878 82.7385Z" fill="url(#paint14_linear_5610_64525)"/>
<path id="Vector_16" fill-rule="evenodd" clip-rule="evenodd" d="M58.0186 105.44C57.8375 105.639 57.529 105.654 57.3297 105.473C57.1303 105.293 57.1155 104.986 57.2967 104.787L67.6653 93.4228C67.8465 93.2242 68.1549 93.2095 68.3543 93.3899C68.5537 93.5703 68.5684 93.8775 68.3873 94.076L58.0186 105.44Z" fill="url(#paint15_linear_5610_64525)"/>
<path id="Vector_17" opacity="0.2" d="M112.8 42.9999C123.735 42.9999 132.6 34.1351 132.6 23.1999C132.6 12.2647 123.735 3.3999 112.8 3.3999C101.865 3.3999 93 12.2647 93 23.1999C93 34.1351 101.865 42.9999 112.8 42.9999Z" fill="url(#paint16_linear_5610_64525)"/>
<path id="Vector_18" d="M112.801 37.1999C120.533 37.1999 126.801 30.9319 126.801 23.2C126.801 15.468 120.533 9.19995 112.801 9.19995C105.069 9.19995 98.8008 15.468 98.8008 23.2C98.8008 30.9319 105.069 37.1999 112.801 37.1999Z" fill="url(#paint17_linear_5610_64525)"/>
</g>
</g>
<defs>
<linearGradient id="paint0_linear_5610_64525" x1="60.1709" y1="13.6988" x2="24.2026" y2="60" gradientUnits="userSpaceOnUse">
<stop stop-color="#C1FFF7"/>
<stop offset="1" stop-color="#93E9DE"/>
</linearGradient>
<linearGradient id="paint1_linear_5610_64525" x1="80.2476" y1="86.3077" x2="68.3007" y2="102.669" gradientUnits="userSpaceOnUse">
<stop stop-color="#5A93EA"/>
<stop offset="1" stop-color="#3768B4"/>
</linearGradient>
<linearGradient id="paint2_linear_5610_64525" x1="59.1577" y1="91.7801" x2="49.7519" y2="105.277" gradientUnits="userSpaceOnUse">
<stop stop-color="#5A93EA"/>
<stop offset="1" stop-color="#3768B4"/>
</linearGradient>
<linearGradient id="paint3_linear_5610_64525" x1="64.8486" y1="95.3894" x2="63.0862" y2="101.703" gradientUnits="userSpaceOnUse">
<stop stop-color="#F9BB49"/>
<stop offset="1" stop-color="#F08523"/>
</linearGradient>
<linearGradient id="paint4_linear_5610_64525" x1="43.5661" y1="108.2" x2="43.5661" y2="101" gradientUnits="userSpaceOnUse">
<stop stop-color="#E87E1E" stop-opacity="0"/>
<stop offset="1" stop-color="#F07023"/>
</linearGradient>
<linearGradient id="paint5_linear_5610_64525" x1="112.8" y1="3.3999" x2="109.811" y2="31.3991" gradientUnits="userSpaceOnUse">
<stop stop-color="#F9BB49"/>
<stop offset="1" stop-color="#F08523"/>
</linearGradient>
<linearGradient id="paint6_linear_5610_64525" x1="58.43" y1="29.2226" x2="47.0498" y2="9.98794" gradientUnits="userSpaceOnUse">
<stop stop-color="#D3FFFA"/>
<stop offset="1" stop-color="#B7FFF6"/>
</linearGradient>
<linearGradient id="paint7_linear_5610_64525" x1="37.4082" y1="52.9075" x2="37.7971" y2="50.709" gradientUnits="userSpaceOnUse">
<stop stop-color="#5A93EA"/>
<stop offset="1" stop-color="#3768B4"/>
</linearGradient>
<linearGradient id="paint8_linear_5610_64525" x1="35.7691" y1="82.4402" x2="32.1779" y2="27.7892" gradientUnits="userSpaceOnUse">
<stop stop-color="#DB593D"/>
<stop offset="1" stop-color="#F88461"/>
</linearGradient>
<linearGradient id="paint9_linear_5610_64525" x1="40.4211" y1="45.5578" x2="39.3915" y2="51.0542" gradientUnits="userSpaceOnUse">
<stop stop-color="#77EBFF"/>
<stop offset="1" stop-color="#4D86DE"/>
</linearGradient>
<linearGradient id="paint10_linear_5610_64525" x1="50.9907" y1="99.9382" x2="49.5201" y2="93.8405" gradientUnits="userSpaceOnUse">
<stop stop-color="#DB593D"/>
<stop offset="1" stop-color="#F88461"/>
</linearGradient>
<linearGradient id="paint11_linear_5610_64525" x1="46.8644" y1="101.654" x2="44.0019" y2="92.5698" gradientUnits="userSpaceOnUse">
<stop stop-color="#DB593D"/>
<stop offset="1" stop-color="#F88461"/>
</linearGradient>
<linearGradient id="paint12_linear_5610_64525" x1="58.9657" y1="96.2391" x2="59.0497" y2="95.8537" gradientUnits="userSpaceOnUse">
<stop stop-color="#5A93EA"/>
<stop offset="1" stop-color="#3768B4"/>
</linearGradient>
<linearGradient id="paint13_linear_5610_64525" x1="52.6488" y1="84.7648" x2="51.6961" y2="94.5977" gradientUnits="userSpaceOnUse">
<stop stop-color="#77EBFF"/>
<stop offset="1" stop-color="#4D86DE"/>
</linearGradient>
<linearGradient id="paint14_linear_5610_64525" x1="60.8359" y1="96.2871" x2="57.3536" y2="81.1368" gradientUnits="userSpaceOnUse">
<stop stop-color="#DB593D"/>
<stop offset="1" stop-color="#F88461"/>
</linearGradient>
<linearGradient id="paint15_linear_5610_64525" x1="62.1261" y1="101.719" x2="59.2636" y2="92.6348" gradientUnits="userSpaceOnUse">
<stop stop-color="#DB593D"/>
<stop offset="1" stop-color="#F88461"/>
</linearGradient>
<linearGradient id="paint16_linear_5610_64525" x1="112.8" y1="3.3999" x2="109.811" y2="31.3991" gradientUnits="userSpaceOnUse">
<stop stop-color="#F9BB49"/>
<stop offset="1" stop-color="#F08523"/>
</linearGradient>
<linearGradient id="paint17_linear_5610_64525" x1="112.801" y1="9.19995" x2="110.687" y2="28.9974" gradientUnits="userSpaceOnUse">
<stop stop-color="#F9BB49"/>
<stop offset="1" stop-color="#F08523"/>
</linearGradient>
</defs>
</svg>
