<svg width="120" height="134" viewBox="0 0 120 134" fill="none" xmlns="http://www.w3.org/2000/svg">
<g id="Holiday Snow">
<g id="Shape">
<path id="Vector" d="M60 134C93.1371 134 120 107.137 120 73.9997C120 40.8627 93.1371 13.9998 60 13.9998C26.8629 13.9998 0 40.8627 0 73.9997C0 107.137 26.8629 134 60 134Z" fill="url(#paint0_linear_5610_64587)"/>
<path id="Vector_2" fill-rule="evenodd" clip-rule="evenodd" d="M26.7168 24.0702C29.247 22.3801 31.9129 20.8773 34.6947 19.5815H66.7686L26.7168 24.0702Z" fill="url(#paint1_linear_5610_64587)"/>
<path id="Vector_3" fill-rule="evenodd" clip-rule="evenodd" d="M76.8296 33.884C76.3669 33.884 68.6405 34.2033 53.6504 34.8417L89.3558 38.1262C81.4678 35.2981 77.2923 33.884 76.8296 33.884Z" fill="url(#paint2_linear_5610_64587)"/>
<path id="Vector_4" fill-rule="evenodd" clip-rule="evenodd" d="M54.0539 54.0411L76.0404 19.3708L81.938 22.5277H88.4505L116.295 57.2518L80.4752 68.037L52.0527 59.7831L54.0539 54.0411Z" fill="url(#paint3_linear_5610_64587)"/>
<path id="Vector_5" fill-rule="evenodd" clip-rule="evenodd" d="M67.625 62.4919L80.4746 52.5063L77.3818 35.7492L85.8881 28.7458L81.9373 22.5278H88.4498L116.294 57.2519L80.4746 68.0371L67.625 62.4919Z" fill="url(#paint4_linear_5610_64587)"/>
<path id="Vector_6" fill-rule="evenodd" clip-rule="evenodd" d="M0.00141924 73.5829C17.9728 56.7152 30.2285 46.4583 36.7687 42.8123L49.5811 43.3123L74.9307 66.8089L42.5669 86.5981H1.32481C0.456824 82.5359 0 78.3213 0 74C0 73.8609 0.000473589 73.7218 0.00141924 73.5829Z" fill="url(#paint5_linear_5610_64587)"/>
<path id="Vector_7" fill-rule="evenodd" clip-rule="evenodd" d="M1.32516 86.598C1.13997 85.7313 0.973489 84.8576 0.826172 83.9775L8.56945 81.796L36.6268 52.9518L49.5815 43.3123L74.931 66.8089L42.5673 86.598H1.32516Z" fill="url(#paint6_linear_5610_64587)"/>
<path id="Vector_8" fill-rule="evenodd" clip-rule="evenodd" d="M42.69 65.2625H44.4288L44.6696 75.5758H42.4492L42.69 65.2625Z" fill="url(#paint7_linear_5610_64587)"/>
<path id="Vector_9" fill-rule="evenodd" clip-rule="evenodd" d="M37.373 67.2914L43.3556 66.3628L49.9772 67.2914L48.6454 60.5318C45.1188 59.4878 43.3556 58.9658 43.3556 58.9658C43.3556 58.9658 41.7163 59.6413 38.4378 60.9922L37.373 67.2914Z" fill="url(#paint8_linear_5610_64587)"/>
<path id="Vector_10" fill-rule="evenodd" clip-rule="evenodd" d="M49.2117 63.4101L48.9932 62.301L46.0723 62.7383L49.2117 63.4101Z" fill="url(#paint9_linear_5610_64587)"/>
<path id="Vector_11" fill-rule="evenodd" clip-rule="evenodd" d="M37.3828 61.4713L43.4116 60.178L49.8976 61.4713L48.9494 55.612L43.4116 53.2676L38.3061 55.0875L37.6235 59.8071H38.3061L37.5352 60.4176L37.3828 61.4713Z" fill="url(#paint10_linear_5610_64587)"/>
<path id="Vector_12" fill-rule="evenodd" clip-rule="evenodd" d="M37.0293 55.7841L43.3533 54.4957L49.9131 55.7841L49.3164 53.2489L46.9293 52.6898H49.1848L43.4712 28.4143L39.9729 43.2778H41.978L39.6467 44.6633L37.0293 55.7841Z" fill="url(#paint11_linear_5610_64587)"/>
<path id="Vector_13" fill-rule="evenodd" clip-rule="evenodd" d="M3.80078 68.5999H5.60079V79.5998H3.80078V68.5999Z" fill="url(#paint12_linear_5610_64587)"/>
<path id="Vector_14" fill-rule="evenodd" clip-rule="evenodd" d="M6.42922 46.9504L11.4005 71.7998L4.47603 70.4292L0.0585938 71.3362C0.440607 62.5915 2.69439 54.3327 6.42922 46.9504Z" fill="url(#paint13_linear_5610_64587)"/>
<path id="Vector_15" fill-rule="evenodd" clip-rule="evenodd" d="M27.8008 64.5999H29.6008V75.5999H27.8008V64.5999Z" fill="url(#paint14_linear_5610_64587)"/>
<path id="Vector_16" fill-rule="evenodd" clip-rule="evenodd" d="M21.8008 67.7998L28.4763 66.4292L35.4008 67.7998L28.4388 32.9998L21.8008 67.7998Z" fill="url(#paint15_linear_5610_64587)"/>
<path id="Vector_17" fill-rule="evenodd" clip-rule="evenodd" d="M0.359375 80.6053C6.88348 75.7809 16.5075 74.2035 29.2316 75.873C55.2542 79.2875 61.5126 54.3489 89.5403 54.3489C99.9317 54.3489 107.603 51.2423 112.555 45.0291C117.299 53.6178 120 63.4935 120 74C120 107.137 93.137 134 59.9999 134C29.0952 134 3.64775 110.634 0.359375 80.6053Z" fill="url(#paint16_linear_5610_64587)"/>
<path id="Vector_18" fill-rule="evenodd" clip-rule="evenodd" d="M1.35352 86.7342C5.18342 84.5715 10.4563 85.4169 13.555 86.9913C17.6128 89.053 22.1164 88.8371 32.1499 85.2973C38.8389 82.9375 45.4492 85.6227 51.981 93.3531C44.8453 92.3521 40.0267 93.595 37.5252 97.0819C33.7728 102.312 28.7047 103.187 18.5135 101.866C12.8729 101.135 10.0348 102.992 8.55188 104.891C5.22217 99.3569 2.75998 93.242 1.35352 86.7342H1.35352Z" fill="url(#paint17_linear_5610_64587)"/>
<path id="Vector_19" fill-rule="evenodd" clip-rule="evenodd" d="M110.119 65.8413C103.004 63.0366 97.1812 63.0366 92.6514 65.8413C88.1217 68.6461 82.6331 69.503 76.1855 68.412L77.2675 77.1008L112.648 76.2583L110.119 65.8413Z" fill="url(#paint18_linear_5610_64587)"/>
<path id="Vector_20" fill-rule="evenodd" clip-rule="evenodd" d="M106.799 111.55C105.966 112.587 105.099 113.596 104.199 114.576V104H106.799V111.55Z" fill="url(#paint19_linear_5610_64587)"/>
<path id="Vector_21" fill-rule="evenodd" clip-rule="evenodd" d="M113.539 101.114C112.438 103.284 111.209 105.378 109.862 107.385L105.225 106.47L95.8008 108.4L105.172 59.3999L113.539 101.114Z" fill="url(#paint20_linear_5610_64587)"/>
<path id="Vector_22" fill-rule="evenodd" clip-rule="evenodd" d="M62.7992 133.936C61.9372 133.975 61.0704 133.997 60.1992 133.999V126H62.7992V133.936Z" fill="url(#paint21_linear_5610_64587)"/>
<path id="Vector_23" fill-rule="evenodd" clip-rule="evenodd" d="M51.8008 130.4L61.225 128.47L71.0008 130.4L61.1721 81.3999L51.8008 130.4Z" fill="url(#paint22_linear_5610_64587)"/>
<path id="Vector_24" fill-rule="evenodd" clip-rule="evenodd" d="M30.6 126.315C30.0615 126.012 29.5281 125.701 29 125.381V122.6H30.6V126.315Z" fill="url(#paint23_linear_5610_64587)"/>
<path id="Vector_25" fill-rule="evenodd" clip-rule="evenodd" d="M24.2188 122.168L29.652 93.7998L35.9998 125.4L29.6862 124.155L27.6866 124.564C26.5016 123.805 25.345 123.006 24.2188 122.168H24.2188Z" fill="url(#paint24_linear_5610_64587)"/>
<path id="Vector_26" fill-rule="evenodd" clip-rule="evenodd" d="M116.945 92.9541C115.941 95.9713 114.704 98.8819 113.256 101.665V88.3853H116.945V92.9541V92.9541Z" fill="url(#paint25_linear_5610_64587)"/>
<path id="Vector_27" fill-rule="evenodd" clip-rule="evenodd" d="M119.761 79.3842C119.417 83.2486 118.707 87.0077 117.666 90.6264L114.759 90.2178L104.818 91.7642L106.587 81.2743L114.759 77.8999L119.761 79.3842Z" fill="url(#paint26_linear_5610_64587)"/>
<path id="Vector_28" fill-rule="evenodd" clip-rule="evenodd" d="M119.903 70.5536C119.968 71.6941 120 72.8431 120 73.9998C120 76.3229 119.868 78.6151 119.611 80.8695L114.853 79.9185L104.836 82.0723L105.089 80.3176L106.37 79.3009H105.236L106.37 71.4415L114.853 68.4109L119.903 70.5536Z" fill="url(#paint27_linear_5610_64587)"/>
<path id="Vector_29" fill-rule="evenodd" clip-rule="evenodd" d="M111.252 42.7864C116.392 51.2082 119.514 60.9959 119.948 71.4778L114.758 70.4561L104.25 72.6017L108.599 54.0827L112.472 51.7754H109.141L111.252 42.7864Z" fill="url(#paint28_linear_5610_64587)"/>
<path id="Vector_30" fill-rule="evenodd" clip-rule="evenodd" d="M95.943 122.047C95.1715 122.625 94.3856 123.185 93.5859 123.726V114.805H95.943V122.047Z" fill="url(#paint29_linear_5610_64587)"/>
<path id="Vector_31" fill-rule="evenodd" clip-rule="evenodd" d="M88.1953 116.963L94.546 115.976L101.575 116.963L100.161 109.774C96.4177 108.664 94.546 108.109 94.546 108.109C94.546 108.109 92.8058 108.827 89.3256 110.264L88.1953 116.963Z" fill="url(#paint30_linear_5610_64587)"/>
<path id="Vector_32" fill-rule="evenodd" clip-rule="evenodd" d="M100.764 112.835L100.532 111.656L97.4316 112.121L100.764 112.835Z" fill="url(#paint31_linear_5610_64587)"/>
<path id="Vector_33" fill-rule="evenodd" clip-rule="evenodd" d="M88.207 110.773L94.6068 109.398L101.492 110.773L100.485 104.542L94.6068 102.048L89.1872 103.984L88.4625 109.003H89.1872L88.3688 109.653L88.207 110.773Z" fill="url(#paint32_linear_5610_64587)"/>
<path id="Vector_34" fill-rule="evenodd" clip-rule="evenodd" d="M87.832 104.725L94.5452 103.354L101.509 104.725L100.875 102.028L98.3413 101.434H100.736L94.6704 75.6152L90.9567 91.4235H93.0852L90.6106 92.8971L87.832 104.725Z" fill="url(#paint33_linear_5610_64587)"/>
<path id="Vector_35" fill-rule="evenodd" clip-rule="evenodd" d="M18.3438 117.183L20.025 116.58L24.7108 118.576L25.4293 123.045C22.9184 121.272 20.5498 119.311 18.3438 117.183Z" fill="url(#paint34_linear_5610_64587)"/>
<path id="Vector_36" fill-rule="evenodd" clip-rule="evenodd" d="M15.6367 114.397L16.8401 109.251L18.8126 108.071H17.116L20.0761 95.4121L24.9107 116.087H23.0022L25.0221 116.564L25.527 118.723L19.9763 117.625L19.0167 117.822C17.8451 116.726 16.7174 115.583 15.6367 114.397Z" fill="url(#paint35_linear_5610_64587)"/>
<path id="Vector_37" fill-rule="evenodd" clip-rule="evenodd" d="M40.6004 130.794C39.8604 130.541 39.127 130.275 38.4004 129.994V124H40.6004V130.794Z" fill="url(#paint36_linear_5610_64587)"/>
<path id="Vector_38" fill-rule="evenodd" clip-rule="evenodd" d="M33.5996 125.8L39.3903 124.908L45.7996 125.8L44.5105 119.305C41.097 118.301 39.3903 117.8 39.3903 117.8C39.3903 117.8 37.8036 118.449 34.6302 119.747L33.5996 125.8Z" fill="url(#paint37_linear_5610_64587)"/>
<path id="Vector_39" fill-rule="evenodd" clip-rule="evenodd" d="M45 122L44.7912 121L42 121.394L45 122Z" fill="url(#paint38_linear_5610_64587)"/>
<path id="Vector_40" fill-rule="evenodd" clip-rule="evenodd" d="M33.5996 120.4L39.4768 119.139L45.7996 120.4L44.8752 114.686L39.4768 112.4L34.4997 114.175L33.8343 118.777H34.4997L33.7482 119.372L33.5996 120.4Z" fill="url(#paint39_linear_5610_64587)"/>
<path id="Vector_41" fill-rule="evenodd" clip-rule="evenodd" d="M33.1992 114.8L39.2857 113.548L45.5992 114.8L45.0249 112.336L42.7275 111.793H44.8983L39.3992 88.2L36.0322 102.645H37.962L35.7184 103.992L33.1992 114.8Z" fill="url(#paint40_linear_5610_64587)"/>
<path id="Vector_42" fill-rule="evenodd" clip-rule="evenodd" d="M78.3455 131.144C77.1321 131.533 75.9019 131.884 74.6562 132.197V120.785H78.3455V131.144Z" fill="url(#paint41_linear_5610_64587)"/>
<path id="Vector_43" fill-rule="evenodd" clip-rule="evenodd" d="M66.2188 124.164L76.1589 122.618L87.161 124.164L84.9481 112.908C79.0887 111.169 76.1589 110.3 76.1589 110.3C76.1589 110.3 73.4352 111.425 67.9879 113.674L66.2188 124.164Z" fill="url(#paint42_linear_5610_64587)"/>
<path id="Vector_44" fill-rule="evenodd" clip-rule="evenodd" d="M85.8902 117.701L85.5271 115.854L80.6738 116.582L85.8902 117.701Z" fill="url(#paint43_linear_5610_64587)"/>
<path id="Vector_45" fill-rule="evenodd" clip-rule="evenodd" d="M66.2363 114.472L76.2534 112.319L87.0301 114.472L85.4546 104.715L76.2534 100.811L67.7704 103.842L66.6363 111.701H67.7704L66.4895 112.718L66.2363 114.472Z" fill="url(#paint44_linear_5610_64587)"/>
<path id="Vector_46" fill-rule="evenodd" clip-rule="evenodd" d="M65.6504 105.002L76.1579 102.856L87.0574 105.002L86.0659 100.78L82.0997 99.849H85.8473L76.3539 59.4241L70.5412 84.1755H73.8728L69.9994 86.4828L65.6504 105.002Z" fill="url(#paint45_linear_5610_64587)"/>
<path id="Vector_47" fill-rule="evenodd" clip-rule="evenodd" d="M14.6549 62.1853H17.5441L17.8509 75.2774C17.0486 75.3192 16.404 75.3586 15.9172 75.3956C15.4303 75.4326 14.9117 75.4816 14.3613 75.5427L14.6549 62.1853Z" fill="url(#paint46_linear_5610_64587)"/>
<path id="Vector_48" fill-rule="evenodd" clip-rule="evenodd" d="M5.81836 65.564L15.7586 64.0176L26.7606 65.564L24.5478 54.3075C18.6883 52.569 15.7586 51.6997 15.7586 51.6997C15.7586 51.6997 13.0349 52.8245 7.5875 55.0741L5.81836 65.564Z" fill="url(#paint47_linear_5610_64587)"/>
<path id="Vector_49" fill-rule="evenodd" clip-rule="evenodd" d="M25.4898 59.1005L25.1268 57.2537L20.2734 57.9818L25.4898 59.1005Z" fill="url(#paint48_linear_5610_64587)"/>
<path id="Vector_50" fill-rule="evenodd" clip-rule="evenodd" d="M5.83594 55.8723L15.853 53.7185L26.6298 55.8723L25.0542 46.1149L15.853 42.2109L7.37005 45.2416L6.23588 53.1009H7.37005L6.08915 54.1176L5.83594 55.8723Z" fill="url(#paint49_linear_5610_64587)"/>
<path id="Vector_51" fill-rule="evenodd" clip-rule="evenodd" d="M5.25 46.4017L15.7575 44.2561L26.657 46.4017L25.6655 42.1798L21.6993 41.2489H25.4469L15.9535 0.823975L10.1408 25.5754H13.4724L9.599 27.8827L5.25 46.4017Z" fill="url(#paint50_linear_5610_64587)"/>
<path id="Vector_52" d="M54.7 74.3998C55.0866 74.3998 55.4 74.0864 55.4 73.6998C55.4 73.3132 55.0866 72.9998 54.7 72.9998C54.3134 72.9998 54 73.3132 54 73.6998C54 74.0864 54.3134 74.3998 54.7 74.3998Z" fill="url(#paint51_linear_5610_64587)"/>
<path id="Vector_53" opacity="0.3" d="M12.7 22.3998C13.0866 22.3998 13.4 22.0864 13.4 21.6998C13.4 21.3132 13.0866 20.9998 12.7 20.9998C12.3134 20.9998 12 21.3132 12 21.6998C12 22.0864 12.3134 22.3998 12.7 22.3998Z" fill="url(#paint52_linear_5610_64587)"/>
<path id="Vector_54" opacity="0.56" d="M66.7 52.3998C67.0866 52.3998 67.4 52.0864 67.4 51.6998C67.4 51.3132 67.0866 50.9998 66.7 50.9998C66.3134 50.9998 66 51.3132 66 51.6998C66 52.0864 66.3134 52.3998 66.7 52.3998Z" fill="url(#paint53_linear_5610_64587)"/>
<path id="Vector_55" opacity="0.56" d="M107.7 66.9999C108.087 66.9999 108.4 66.6865 108.4 66.2999C108.4 65.9133 108.087 65.5999 107.7 65.5999C107.313 65.5999 107 65.9133 107 66.2999C107 66.6865 107.313 66.9999 107.7 66.9999Z" fill="url(#paint54_linear_5610_64587)"/>
<path id="Vector_56" d="M52.7 38.3998C53.0866 38.3998 53.4 38.0864 53.4 37.6998C53.4 37.3132 53.0866 36.9998 52.7 36.9998C52.3134 36.9998 52 37.3132 52 37.6998C52 38.0864 52.3134 38.3998 52.7 38.3998Z" fill="url(#paint55_linear_5610_64587)"/>
<path id="Vector_57" opacity="0.8" d="M31.1004 46.9999C31.487 46.9999 31.8004 46.6865 31.8004 46.2999C31.8004 45.9133 31.487 45.5999 31.1004 45.5999C30.7138 45.5999 30.4004 45.9133 30.4004 46.2999C30.4004 46.6865 30.7138 46.9999 31.1004 46.9999Z" fill="url(#paint56_linear_5610_64587)"/>
<path id="Vector_58" opacity="0.8" d="M92.5996 86.5999C93.1519 86.5999 93.5996 86.1522 93.5996 85.5999C93.5996 85.0476 93.1519 84.5999 92.5996 84.5999C92.0473 84.5999 91.5996 85.0476 91.5996 85.5999C91.5996 86.1522 92.0473 86.5999 92.5996 86.5999Z" fill="url(#paint57_linear_5610_64587)"/>
<path id="Vector_59" opacity="0.8" d="M80.3008 113.6C80.5769 113.6 80.8008 113.376 80.8008 113.1C80.8008 112.824 80.5769 112.6 80.3008 112.6C80.0246 112.6 79.8008 112.824 79.8008 113.1C79.8008 113.376 80.0246 113.6 80.3008 113.6Z" fill="url(#paint58_linear_5610_64587)"/>
<path id="Vector_60" opacity="0.3" d="M18.6992 101.8C18.9754 101.8 19.1992 101.576 19.1992 101.3C19.1992 101.024 18.9754 100.8 18.6992 100.8C18.4231 100.8 18.1992 101.024 18.1992 101.3C18.1992 101.576 18.4231 101.8 18.6992 101.8Z" fill="url(#paint59_linear_5610_64587)"/>
<path id="Vector_61" opacity="0.6" d="M57 104.8C57.5523 104.8 58 104.352 58 103.8C58 103.248 57.5523 102.8 57 102.8C56.4477 102.8 56 103.248 56 103.8C56 104.352 56.4477 104.8 57 104.8Z" fill="url(#paint60_linear_5610_64587)"/>
<path id="Vector_62" d="M28.8008 86.5999C29.3531 86.5999 29.8008 86.1522 29.8008 85.5999C29.8008 85.0476 29.3531 84.5999 28.8008 84.5999C28.2485 84.5999 27.8008 85.0476 27.8008 85.5999C27.8008 86.1522 28.2485 86.5999 28.8008 86.5999Z" fill="url(#paint61_linear_5610_64587)"/>
<path id="Vector_63" d="M34.7992 110.6C35.1306 110.6 35.3992 110.331 35.3992 110C35.3992 109.669 35.1306 109.4 34.7992 109.4C34.4678 109.4 34.1992 109.669 34.1992 110C34.1992 110.331 34.4678 110.6 34.7992 110.6Z" fill="url(#paint62_linear_5610_64587)"/>
</g>
</g>
<defs>
<linearGradient id="paint0_linear_5610_64587" x1="54.1709" y1="27.6986" x2="18.2026" y2="73.9997" gradientUnits="userSpaceOnUse">
<stop stop-color="#C1FFF7"/>
<stop offset="1" stop-color="#93E9DE"/>
</linearGradient>
<linearGradient id="paint1_linear_5610_64587" x1="61.7222" y1="21.7726" x2="33.3935" y2="25.9265" gradientUnits="userSpaceOnUse">
<stop stop-color="#C1FFF7"/>
<stop offset="1" stop-color="#93E9DE"/>
</linearGradient>
<linearGradient id="paint2_linear_5610_64587" x1="69.7687" y1="35.982" x2="59.3077" y2="37.5819" gradientUnits="userSpaceOnUse">
<stop stop-color="#C1FFF7"/>
<stop offset="1" stop-color="#93E9DE"/>
</linearGradient>
<linearGradient id="paint3_linear_5610_64587" x1="86.037" y1="32.1557" x2="80.7564" y2="61.935" gradientUnits="userSpaceOnUse">
<stop stop-color="#77EBFF"/>
<stop offset="1" stop-color="#4D86DE"/>
</linearGradient>
<linearGradient id="paint4_linear_5610_64587" x1="93.409" y1="22.3811" x2="88.1756" y2="67.9199" gradientUnits="userSpaceOnUse">
<stop stop-color="#77EBFF"/>
<stop offset="1" stop-color="#4D86DE"/>
</linearGradient>
<linearGradient id="paint5_linear_5610_64587" x1="39.6968" y1="56.1002" x2="36.358" y2="74.2564" gradientUnits="userSpaceOnUse">
<stop stop-color="#77EBFF"/>
<stop offset="1" stop-color="#4D86DE"/>
</linearGradient>
<linearGradient id="paint6_linear_5610_64587" x1="40.4097" y1="60.0904" x2="36.8499" y2="74.7487" gradientUnits="userSpaceOnUse">
<stop stop-color="#77EBFF"/>
<stop offset="1" stop-color="#4D86DE"/>
</linearGradient>
<linearGradient id="paint7_linear_5610_64587" x1="43.5594" y1="53.643" x2="43.5594" y2="69.5032" gradientUnits="userSpaceOnUse">
<stop stop-color="#77EBFF"/>
<stop offset="1" stop-color="#4D86DE"/>
</linearGradient>
<linearGradient id="paint8_linear_5610_64587" x1="44.1787" y1="56.5927" x2="43.7828" y2="64.1171" gradientUnits="userSpaceOnUse">
<stop stop-color="#77EBFF"/>
<stop offset="1" stop-color="#4D86DE"/>
</linearGradient>
<linearGradient id="paint9_linear_5610_64587" x1="51.0847" y1="62.07" x2="49.9473" y2="64.1853" gradientUnits="userSpaceOnUse">
<stop stop-color="#77EBFF"/>
<stop offset="1" stop-color="#4D86DE"/>
</linearGradient>
<linearGradient id="paint10_linear_5610_64587" x1="44.5693" y1="49.6703" x2="43.7458" y2="59.0583" gradientUnits="userSpaceOnUse">
<stop stop-color="#77EBFF"/>
<stop offset="1" stop-color="#4D86DE"/>
</linearGradient>
<linearGradient id="paint11_linear_5610_64587" x1="43.5562" y1="26.3471" x2="41.9779" y2="57.5492" gradientUnits="userSpaceOnUse">
<stop stop-color="#77EBFF"/>
<stop offset="1" stop-color="#4D86DE"/>
</linearGradient>
<linearGradient id="paint12_linear_5610_64587" x1="4.70078" y1="56.2069" x2="4.70078" y2="73.123" gradientUnits="userSpaceOnUse">
<stop stop-color="#77EBFF"/>
<stop offset="1" stop-color="#4D86DE"/>
</linearGradient>
<linearGradient id="paint13_linear_5610_64587" x1="5.79993" y1="45.0736" x2="4.41036" y2="73.4048" gradientUnits="userSpaceOnUse">
<stop stop-color="#77EBFF"/>
<stop offset="1" stop-color="#4D86DE"/>
</linearGradient>
<linearGradient id="paint14_linear_5610_64587" x1="28.7008" y1="52.2068" x2="28.7008" y2="69.123" gradientUnits="userSpaceOnUse">
<stop stop-color="#77EBFF"/>
<stop offset="1" stop-color="#4D86DE"/>
</linearGradient>
<linearGradient id="paint15_linear_5610_64587" x1="28.6626" y1="30.3713" x2="26.9957" y2="70.0637" gradientUnits="userSpaceOnUse">
<stop stop-color="#77EBFF"/>
<stop offset="1" stop-color="#4D86DE"/>
</linearGradient>
<linearGradient id="paint16_linear_5610_64587" x1="103.5" y1="70.257" x2="71.6045" y2="154.253" gradientUnits="userSpaceOnUse">
<stop stop-color="#91F6FF"/>
<stop offset="1" stop-color="#4D86DE"/>
</linearGradient>
<linearGradient id="paint17_linear_5610_64587" x1="23.9368" y1="94.68" x2="23.9368" y2="81.2905" gradientUnits="userSpaceOnUse">
<stop stop-color="#78CEF3" stop-opacity="0"/>
<stop offset="1" stop-color="#4D86DE"/>
</linearGradient>
<linearGradient id="paint18_linear_5610_64587" x1="92.4759" y1="70.8311" x2="92.1353" y2="68.4001" gradientUnits="userSpaceOnUse">
<stop stop-color="#91F6FF" stop-opacity="0"/>
<stop offset="1" stop-color="#4D86DE"/>
</linearGradient>
<linearGradient id="paint19_linear_5610_64587" x1="105.499" y1="92.0846" x2="105.499" y2="108.348" gradientUnits="userSpaceOnUse">
<stop stop-color="#77EBFF"/>
<stop offset="1" stop-color="#4D86DE"/>
</linearGradient>
<linearGradient id="paint20_linear_5610_64587" x1="104.739" y1="55.6989" x2="102.565" y2="111.598" gradientUnits="userSpaceOnUse">
<stop stop-color="#77EBFF"/>
<stop offset="1" stop-color="#4D86DE"/>
</linearGradient>
<linearGradient id="paint21_linear_5610_64587" x1="61.4992" y1="116.987" x2="61.4992" y2="129.289" gradientUnits="userSpaceOnUse">
<stop stop-color="#77EBFF"/>
<stop offset="1" stop-color="#4D86DE"/>
</linearGradient>
<linearGradient id="paint22_linear_5610_64587" x1="62.299" y1="77.9346" x2="54.7826" y2="132.802" gradientUnits="userSpaceOnUse">
<stop stop-color="#7BD3F4"/>
<stop offset="1" stop-color="#4D86DE"/>
</linearGradient>
<linearGradient id="paint23_linear_5610_64587" x1="29.8" y1="118.414" x2="29.8" y2="124.128" gradientUnits="userSpaceOnUse">
<stop stop-color="#77EBFF"/>
<stop offset="1" stop-color="#4D86DE"/>
</linearGradient>
<linearGradient id="paint24_linear_5610_64587" x1="30.6082" y1="91.565" x2="25.9906" y2="126.992" gradientUnits="userSpaceOnUse">
<stop stop-color="#7BD3F4"/>
<stop offset="1" stop-color="#4D86DE"/>
</linearGradient>
<linearGradient id="paint25_linear_5610_64587" x1="115.1" y1="73.424" x2="115.1" y2="93.8457" gradientUnits="userSpaceOnUse">
<stop stop-color="#77EBFF"/>
<stop offset="1" stop-color="#4D86DE"/>
</linearGradient>
<linearGradient id="paint26_linear_5610_64587" x1="112.887" y1="63.3578" x2="111.964" y2="87.9975" gradientUnits="userSpaceOnUse">
<stop stop-color="#77EBFF"/>
<stop offset="1" stop-color="#4D86DE"/>
</linearGradient>
<linearGradient id="paint27_linear_5610_64587" x1="113.544" y1="51.0264" x2="111.677" y2="80.2846" gradientUnits="userSpaceOnUse">
<stop stop-color="#77EBFF"/>
<stop offset="1" stop-color="#4D86DE"/>
</linearGradient>
<linearGradient id="paint28_linear_5610_64587" x1="112.229" y1="40.5344" x2="110.306" y2="74.5136" gradientUnits="userSpaceOnUse">
<stop stop-color="#77EBFF"/>
<stop offset="1" stop-color="#4D86DE"/>
</linearGradient>
<linearGradient id="paint29_linear_5610_64587" x1="94.7645" y1="104.754" x2="94.7645" y2="118.474" gradientUnits="userSpaceOnUse">
<stop stop-color="#77EBFF"/>
<stop offset="1" stop-color="#4D86DE"/>
</linearGradient>
<linearGradient id="paint30_linear_5610_64587" x1="94.8852" y1="103.105" x2="94.6989" y2="113.567" gradientUnits="userSpaceOnUse">
<stop stop-color="#77EBFF"/>
<stop offset="1" stop-color="#4D86DE"/>
</linearGradient>
<linearGradient id="paint31_linear_5610_64587" x1="102.752" y1="111.407" x2="101.546" y2="113.655" gradientUnits="userSpaceOnUse">
<stop stop-color="#77EBFF"/>
<stop offset="1" stop-color="#4D86DE"/>
</linearGradient>
<linearGradient id="paint32_linear_5610_64587" x1="95.8186" y1="93.6765" x2="94.9533" y2="108.181" gradientUnits="userSpaceOnUse">
<stop stop-color="#77EBFF"/>
<stop offset="1" stop-color="#4D86DE"/>
</linearGradient>
<linearGradient id="paint33_linear_5610_64587" x1="94.7603" y1="73.4166" x2="93.0848" y2="106.602" gradientUnits="userSpaceOnUse">
<stop stop-color="#77EBFF"/>
<stop offset="1" stop-color="#4D86DE"/>
</linearGradient>
<linearGradient id="paint34_linear_5610_64587" x1="22.4034" y1="101.595" x2="21.5163" y2="122.256" gradientUnits="userSpaceOnUse">
<stop stop-color="#77EBFF"/>
<stop offset="1" stop-color="#4D86DE"/>
</linearGradient>
<linearGradient id="paint35_linear_5610_64587" x1="20.9195" y1="81.5056" x2="18.1364" y2="120.115" gradientUnits="userSpaceOnUse">
<stop stop-color="#77EBFF"/>
<stop offset="1" stop-color="#4D86DE"/>
</linearGradient>
<linearGradient id="paint36_linear_5610_64587" x1="39.5004" y1="116.345" x2="39.5004" y2="126.794" gradientUnits="userSpaceOnUse">
<stop stop-color="#77EBFF"/>
<stop offset="1" stop-color="#4D86DE"/>
</linearGradient>
<linearGradient id="paint37_linear_5610_64587" x1="39.6996" y1="113.435" x2="39.5328" y2="122.715" gradientUnits="userSpaceOnUse">
<stop stop-color="#77EBFF"/>
<stop offset="1" stop-color="#4D86DE"/>
</linearGradient>
<linearGradient id="paint38_linear_5610_64587" x1="46.7897" y1="120.869" x2="45.6761" y2="122.823" gradientUnits="userSpaceOnUse">
<stop stop-color="#77EBFF"/>
<stop offset="1" stop-color="#4D86DE"/>
</linearGradient>
<linearGradient id="paint39_linear_5610_64587" x1="40.5896" y1="104.761" x2="39.7974" y2="118.018" gradientUnits="userSpaceOnUse">
<stop stop-color="#77EBFF"/>
<stop offset="1" stop-color="#4D86DE"/>
</linearGradient>
<linearGradient id="paint40_linear_5610_64587" x1="39.9102" y1="72.3312" x2="36.4231" y2="116.36" gradientUnits="userSpaceOnUse">
<stop stop-color="#77EBFF"/>
<stop offset="1" stop-color="#4D86DE"/>
</linearGradient>
<linearGradient id="paint41_linear_5610_64587" x1="76.5009" y1="107.928" x2="76.5009" y2="125.478" gradientUnits="userSpaceOnUse">
<stop stop-color="#77EBFF"/>
<stop offset="1" stop-color="#4D86DE"/>
</linearGradient>
<linearGradient id="paint42_linear_5610_64587" x1="78.3876" y1="101.716" x2="77.347" y2="118.921" gradientUnits="userSpaceOnUse">
<stop stop-color="#77EBFF"/>
<stop offset="1" stop-color="#4D86DE"/>
</linearGradient>
<linearGradient id="paint43_linear_5610_64587" x1="89.0021" y1="115.463" x2="87.1138" y2="118.983" gradientUnits="userSpaceOnUse">
<stop stop-color="#77EBFF"/>
<stop offset="1" stop-color="#4D86DE"/>
</linearGradient>
<linearGradient id="paint44_linear_5610_64587" x1="78.6872" y1="92.0761" x2="77.0909" y2="110.488" gradientUnits="userSpaceOnUse">
<stop stop-color="#77EBFF"/>
<stop offset="1" stop-color="#4D86DE"/>
</linearGradient>
<linearGradient id="paint45_linear_5610_64587" x1="76.4945" y1="55.9816" x2="73.872" y2="107.941" gradientUnits="userSpaceOnUse">
<stop stop-color="#77EBFF"/>
<stop offset="1" stop-color="#4D86DE"/>
</linearGradient>
<linearGradient id="paint46_linear_5610_64587" x1="16.1061" y1="47.1364" x2="16.1061" y2="67.6777" gradientUnits="userSpaceOnUse">
<stop stop-color="#77EBFF"/>
<stop offset="1" stop-color="#4D86DE"/>
</linearGradient>
<linearGradient id="paint47_linear_5610_64587" x1="17.1262" y1="47.6991" x2="16.4655" y2="60.2847" gradientUnits="userSpaceOnUse">
<stop stop-color="#77EBFF"/>
<stop offset="1" stop-color="#4D86DE"/>
</linearGradient>
<linearGradient id="paint48_linear_5610_64587" x1="28.6018" y1="56.8631" x2="26.7135" y2="60.383" gradientUnits="userSpaceOnUse">
<stop stop-color="#77EBFF"/>
<stop offset="1" stop-color="#4D86DE"/>
</linearGradient>
<linearGradient id="paint49_linear_5610_64587" x1="17.7765" y1="36.1631" x2="16.4024" y2="51.8646" gradientUnits="userSpaceOnUse">
<stop stop-color="#77EBFF"/>
<stop offset="1" stop-color="#4D86DE"/>
</linearGradient>
<linearGradient id="paint50_linear_5610_64587" x1="16.0941" y1="-2.6185" x2="13.4716" y2="49.3413" gradientUnits="userSpaceOnUse">
<stop stop-color="#77EBFF"/>
<stop offset="1" stop-color="#4D86DE"/>
</linearGradient>
<linearGradient id="paint51_linear_5610_64587" x1="54" y1="73.3049" x2="55.4" y2="74.3998" gradientUnits="userSpaceOnUse">
<stop stop-color="#CBF1FF"/>
<stop offset="1" stop-color="#7BD2F4"/>
</linearGradient>
<linearGradient id="paint52_linear_5610_64587" x1="12" y1="21.3049" x2="13.4" y2="22.3998" gradientUnits="userSpaceOnUse">
<stop stop-color="#CBF1FF"/>
<stop offset="1" stop-color="#7BD2F4"/>
</linearGradient>
<linearGradient id="paint53_linear_5610_64587" x1="66" y1="51.3049" x2="67.4" y2="52.3998" gradientUnits="userSpaceOnUse">
<stop stop-color="#CBF1FF"/>
<stop offset="1" stop-color="#7BD2F4"/>
</linearGradient>
<linearGradient id="paint54_linear_5610_64587" x1="107" y1="65.905" x2="108.4" y2="66.9999" gradientUnits="userSpaceOnUse">
<stop stop-color="#CBF1FF"/>
<stop offset="1" stop-color="#7BD2F4"/>
</linearGradient>
<linearGradient id="paint55_linear_5610_64587" x1="52" y1="37.3049" x2="54.5081" y2="39.5272" gradientUnits="userSpaceOnUse">
<stop stop-color="#E4FFFC"/>
<stop offset="1" stop-color="#B8FBF3"/>
</linearGradient>
<linearGradient id="paint56_linear_5610_64587" x1="30.4004" y1="45.905" x2="32.9085" y2="48.1272" gradientUnits="userSpaceOnUse">
<stop stop-color="#E4FFFC"/>
<stop offset="1" stop-color="#B8FBF3"/>
</linearGradient>
<linearGradient id="paint57_linear_5610_64587" x1="91.5996" y1="85.0357" x2="93.5996" y2="86.5998" gradientUnits="userSpaceOnUse">
<stop stop-color="#CBF1FF"/>
<stop offset="1" stop-color="#7BD2F4"/>
</linearGradient>
<linearGradient id="paint58_linear_5610_64587" x1="79.8008" y1="112.818" x2="80.8008" y2="113.6" gradientUnits="userSpaceOnUse">
<stop stop-color="#CBF1FF"/>
<stop offset="1" stop-color="#7BD2F4"/>
</linearGradient>
<linearGradient id="paint59_linear_5610_64587" x1="18.1992" y1="101.018" x2="19.1992" y2="101.8" gradientUnits="userSpaceOnUse">
<stop stop-color="#CBF1FF"/>
<stop offset="1" stop-color="#7BD2F4"/>
</linearGradient>
<linearGradient id="paint60_linear_5610_64587" x1="56" y1="103.236" x2="58" y2="104.8" gradientUnits="userSpaceOnUse">
<stop stop-color="#CBF1FF"/>
<stop offset="1" stop-color="#7BD2F4"/>
</linearGradient>
<linearGradient id="paint61_linear_5610_64587" x1="27.8008" y1="85.0357" x2="29.8008" y2="86.5999" gradientUnits="userSpaceOnUse">
<stop stop-color="#CBF1FF"/>
<stop offset="1" stop-color="#7BD2F4"/>
</linearGradient>
<linearGradient id="paint62_linear_5610_64587" x1="34.1992" y1="109.661" x2="35.3992" y2="110.6" gradientUnits="userSpaceOnUse">
<stop stop-color="#CBF1FF"/>
<stop offset="1" stop-color="#7BD2F4"/>
</linearGradient>
</defs>
</svg>
